<svg xmlns="http://www.w3.org/2000/svg" viewBox="0 0 24 24" fill="none" stroke="currentColor" stroke-width="2" stroke-linecap="round" stroke-linejoin="round" class="feather feather-twitter">
  <path d="M23 3a10.9 10.9 0 01-3.1.9A4.5 4.5 0 0022.4 2a9 9 0 01-2.8 1.1A4.5 4.5 0 0016.5 0c-2.5 0-4.5 2-4.5 4.5 0 .4 0 .8.1 1.2A12.8 12.8 0 011.7 1.1 4.5 4.5 0 001.5 5.9a4.5 4.5 0 01-2-0.6v.1c0 2.2 1.6 4 3.7 4.4a4.5 4.5 0 01-2 0.1c.6 1.8 2.4 3.1 4.5 3.1A9 9 0 010 19.5a12.7 12.7 0 006.9 2c8.3 0 12.8-6.9 12.8-12.9 0-.2 0-.4 0-.6A9.2 9.2 0 0023 3z"></path>
</svg>